sit_stand0002_filtered
version=1
nRows=38
nColumns=19
inDegrees=no
endheader
time	ground_force_r_vx	ground_force_r_vy	ground_force_r_vz	ground_force_r_px	ground_force_r_py	ground_force_r_pz	ground_torque_r_x	ground_torque_r_y	ground_torque_r_z	ground_force_l_vx	ground_force_l_vy	ground_force_l_vz	ground_force_l_px	ground_force_l_py	ground_force_l_pz	ground_torque_l_x	ground_torque_l_y	ground_torque_l_z
2.961666666666667	25.81357664556962	362.334788	26.343588928270044	0.15215791756962027	0.0	0.0824459912700437	-49.517261	-21.887906	-7.51254	4.849779645569621	307.33538	-30.637148071729957	0.17464895456962026	0.0	-0.25061204272995674	40.667399	-9.619477	0.668247
2.963333333333334	24.59091664556962	361.722164	26.051062928270042	0.15206625356962034	0.0	0.08221744827004418	-49.517807	-21.887349	-7.87875	3.93903964556962	303.062845	-30.020191071729958	0.17459925756962036	0.0	-0.25056607772995587	40.116733	-9.503461	0.728923
2.965	25.80459864556962	360.501859	25.124778928270043	0.1525465905696204	0.0	0.08378660027004425	-48.786667	-21.637312	-7.147037	3.93506864556962	301.842395	-30.326353071729958	0.17284791856962034	0.0	-0.2506150527299571	39.939116	-9.993845	0.607172
2.966666666666667	23.98221464556962	358.669041	25.755447928270044	0.1508883885696204	0.0	0.082591081270043	-48.965766	-22.126629	-7.60528	4.86175164556962	296.958144	-29.119909071729957	0.17475254256962036	0.0	-0.24909154872995565	39.747893	-9.263501	0.606479
2.9683333333333337	24.27677664556962	359.888785	24.835178928270043	0.15144006456962034	0.0	0.08356890327004418	-48.783293	-22.003366	-7.239153	4.55157264556962	300.6209	-29.723820071729957	0.17350540856962027	0.0	-0.25131015872995555	39.57016	-9.753684	0.728868
2.9700000000000006	23.36493664556962	357.446031	24.847675928270043	0.15206329356962034	0.0	0.08365584327004338	-48.42102	-21.633243	-7.513789	4.24717464556962	295.127629	-29.419799071729955	0.17290395056962027	0.0	-0.248858216729956	39.570131	-9.753634	0.789903
2.9716666666666667	23.37625364556962	353.784868	25.463575928270043	0.15176921456962034	0.0	0.08120645227004442	-48.788384	-21.51469	-7.51306	4.25056164556962	295.127376	-29.114643071729958	0.1724696345696204	0.0	-0.2507181957299558	39.02232	-9.881995	0.545606
2.9733333333333336	22.45875564556962	353.172696	25.168122928270044	0.1506497305696204	0.0	0.08253585727004342	-48.235309	-21.875895	-7.33133	3.6365686455696205	294.517564	-29.413528071729957	0.17198539856962036	0.0	-0.251057494729956	38.84061	-10.00614	0.484586
2.9750000000000005	22.76976764556962	353.174085	25.775518928270042	0.15134827656962035	0.0	0.08356086527004347	-47.871046	-21.628673	-7.056838	3.03641664556962	294.517092	-28.491282071729955	0.17364977556962036	0.0	-0.2510858397299556	38.835074	-9.517688	0.728322
2.9766666666666666	23.98820664556962	350.73355	25.157209928270042	0.15125227956962028	0.0	0.08209532227004424	-48.05504	-21.508643	-6.873275	3.3358506455696206	289.634391	-28.803848071729956	0.17223019356962033	0.0	-0.2513742567299566	38.105523	-9.770144	0.48404
2.9783333333333335	21.86339464556962	347.06923	25.793593928270045	0.1506471275696204	0.0	0.08327895027004395	-47.140376	-21.499027	-7.423943	3.3352666455696207	288.413689	-28.804853071729955	0.17294083256962034	0.0	-0.25019073572995687	38.285908	-9.523986	0.483923
2.9800000000000004	22.15867564556962	345.847104	24.571880928270044	0.15112585456962035	0.0	0.08227337027004378	-47.32554	-21.256933	-7.240192	2.4265696455696206	288.413612	-28.184378071729956	0.17209024556962038	0.0	-0.2514579157299561	37.922517	-9.772327	0.300848
2.9816666666666665	21.85461764556962	347.067823	24.878109928270042	0.15170255056962034	0.0	0.08327720727004362	-47.143203	-21.133531	-6.965617	1.8196426455696204	288.413646	-27.872446071729957	0.17208988056962027	0.0	-0.252096222729957	37.739306	-9.774158	0.544903
2.9833333333333334	21.87088464556962	344.01795	26.104356928270043	0.15188513156962025	0.0	0.08364849427004373	-46.5968	-20.883576	-7.332264	3.6457376455696204	285.361283	-28.200440071729957	0.17298316556962023	0.0	-0.2513461987299568	37.552176	-9.410053	0.483478
2.9850000000000003	20.93673364556962	342.792611	23.977910928270045	0.15095413456962037	0.0	0.08212307027004329	-46.95997	-21.131914	-6.874336	1.8178906455696202	284.751538	-27.875462071729956	0.17336861656962044	0.0	-0.2504288767299565	37.733828	-9.285807	0.666569
2.9866666666666672	20.94915464556962	340.352618	24.897113928270045	0.1515913955696203	0.0	0.08165746127004336	-46.780247	-20.764104	-6.782491	2.1243906455696204	280.478683	-27.577211071729955	0.1724329265696204	0.0	-0.24840464772995574	37.7353	-9.408071	0.422529
2.9883333333333333	19.73800464556962	337.910351	25.522859928270044	0.15154232556962033	0.0	0.08282072227004278	-46.049303	-20.634738	-6.966491	2.7420636455696203	281.698593	-26.972667071729955	0.1712569625696203	0.0	-0.2502812457299566	37.373176	-9.778323	0.422661
2.99	21.56292964556962	336.080599	24.592606928270044	0.15119631756962026	0.0	0.08263025127004298	-45.865933	-20.633261	-6.783656	2.4366146455696205	281.088385	-26.969782071729956	0.17247335456962043	0.0	-0.2513099117299564	37.002952	-9.41625	0.36115
2.991666666666667	21.57060264556962	334.860837	25.204788928270045	0.15208630856962035	0.0	0.08430297327004332	-45.137739	-20.259347	-7.241938	0.9164356455696203	278.64719	-26.344543071729955	0.1730658395696203	0.0	-0.2508281387299567	36.81709	-9.174057	0.482932
2.993333333333333	20.34007664556962	333.636456	23.997707928270042	0.15149399456962032	0.0	0.08217690327004323	-45.685176	-20.387376	-6.783552	0.9124646455696204	277.426741	-26.650705071729956	0.17292831756962024	0.0	-0.24958208172995633	37.000301	-9.172225	0.238878
2.995	20.65180764556962	331.195976	24.303660928270045	0.15251862556962037	0.0	0.08170116327004351	-45.506761	-19.897362	-6.783072	0.5999496455696203	276.206687	-27.258637071729957	0.1723290955696204	0.0	-0.2503054357299561	36.635351	-9.298152	0.482948
2.996666666666667	19.72865064556962	332.414385	23.700257928270045	0.15201968056962034	0.0	0.08277060327004371	-45.321323	-20.139735	-6.783717	0.9211666455696204	274.374225	-25.737748071729957	0.17162616856962032	0.0	-0.252100514729956	35.904387	-9.428444	0.360635
2.998333333333334	19.73411664556962	328.752284	23.705834928270043	0.15135276756962035	0.0	0.08236258727004309	-44.95513	-20.136224	-6.784259	0.9166106455696204	271.933073	-26.044915071729957	0.17266435256962032	0.0	-0.2509346907299568	35.900352	-9.062306	0.299296
3.0	19.13348164556962	328.142439	24.628101928270045	0.1508881875696203	0.0	0.08377662627004323	-44.404805	-20.252882	-6.876811	0.9095446455696203	271.323228	-26.655732071729958	0.17166716356962042	0.0	-0.2526445667299564	35.35375	-9.312479	0.360276
3.001666666666667	20.95749564556962	326.923037	23.696918928270044	0.15137530756962037	0.0	0.08215168327004374	-44.77293	-20.012682	-6.601237	0.9188306455696204	269.491415	-25.741769071729955	0.17235482756962028	0.0	-0.25041929972995636	35.717199	-9.064238	0.421281
3.003333333333334	20.05260964556962	325.702391	24.623040928270044	0.15266396656962034	0.0	0.0827384102700437	-44.411964	-19.520355	-6.967237	1.5319476455696204	268.270173	-25.444392071729958	0.17173946756962033	0.0	-0.24981349072995584	35.718642	-9.186452	0.238276
3.005	19.73099864556962	326.920295	23.098300928270042	0.1525022265696203	0.0	0.0815865662700439	-44.959537	-19.648244	-6.600403	0.6161846455696203	267.660251	-25.434733071729955	0.17164943656962028	0.0	-0.2515616897299564	35.169359	-9.192549	0.238019
3.006666666666667	20.04838864556962	322.649233	23.712204928270044	0.1524677645696203	0.0	0.0808834202700437	-44.596367	-19.399907	-7.058332	-0.3032573544303796	266.440231	-25.730734071729955	0.1710601355696204	0.0	-0.24957541372995617	35.536844	-9.310446	0.360362
3.0083333333333337	19.42051164556962	322.645516	21.887088928270042	0.1540038895696204	0.0	0.08258969227004354	-44.051074	-18.907078	-6.60063	0.017959645569620375	264.60777	-24.209844071729957	0.17265215456962024	0.0	-0.2493813327299561	35.348389	-8.824328	0.237801
3.0100000000000007	19.73828664556962	322.037493	23.105737928270045	0.1524000095696204	0.0	0.0851763182700438	-43.130636	-19.386836	-6.419629	0.014571645569620317	264.608023	-24.515001071729955	0.1717218625696203	0.0	-0.25005941772995577	35.167946	-9.070385	0.359988
3.0116666666666667	19.43878464556962	320.206461	23.416613928270042	0.15358798756962033	0.0	0.08496294427004347	-42.952903	-18.896125	-6.876912	0.6172356455696204	262.777188	-25.133598071729956	0.1728461765696203	0.0	-0.25122997072995634	34.614541	-8.710194	0.481497
3.0133333333333336	20.33944764556962	318.373949	21.579655928270043	0.15358309256962033	0.0	0.08017776127004339	-44.235341	-18.786769	-6.600172	0.013987645569620288	263.38732	-24.516007071729955	0.17336286556962033	0.0	-0.2543292057299569	33.880867	-8.596361	0.358982
3.0150000000000006	19.11587664556962	318.371675	21.286198928270043	0.15363390056962034	0.0	0.0842072722700431	-42.954073	-18.774061	-6.876724	0.6163596455696203	260.946134	-25.135106071729957	0.17494479256962026	0.0	-0.2510314437299561	34.424701	-8.101963	0.41987
3.0166666666666666	19.73094764556962	317.152346	21.587366928270043	0.1541642335696204	0.0	0.08309904227004328	-43.138964	-18.532245	-6.509868	0.9310936455696204	259.72453	-24.224028071729958	0.17527283256962034	0.0	-0.2497215167299558	34.606382	-7.977767	0.541925
3.0183333333333335	19.44333964556962	317.15471	23.421261928270045	0.15454653756962033	0.0	0.08249954727004383	-43.323778	-18.411379	-6.87562	0.6290326455696204	259.114069	-23.915986071729957	0.17283294656962034	0.0	-0.2507980047299556	34.247056	-8.592296	0.359153
3.0200000000000005	17.91057764556962	315.930347	22.522267928270043	0.15396136456962028	0.0	0.08314263327004312	-42.955731	-18.530629	-6.418586	1.8355276455696203	257.893805	-25.151168071729955	0.17404172756962033	0.0	-0.25372178372995613	33.327579	-8.23637	0.23635
3.0216666666666665	18.82606164556962	315.9317	22.513488928270043	0.15625973756962042	0.0	0.08196114227004347	-43.329219	-17.801474	-6.600024	0.9361166455696204	256.061916	-23.616730071729958	0.17384819656962036	0.0	-0.2506695497299569	33.87689	-8.230323	0.175573
3.0233333333333334	19.12609064556962	313.489343	21.598796928270044	0.15465326556962034	0.0	0.08149536127004353	-43.142612	-18.165912	-6.600858	0.6312516455696203	256.672411	-23.612840071729956	0.17394424856962032	0.0	-0.24955803072995675	34.24302	-8.226158	0.297815
